# xmcd CD database file
#
# Track frame offsets:
#	150
#	18058
#	38699
#	55104
#	76712
#	97039
#	114481
#	138531
#	161941
#	180314
#	202957
#	229505
#	234447
#	285403
#
# Disc length: 4440 seconds
#
# Revision: 2
# Processed by: cddbd v1.4PL0 Copyright (c) Steve Scherf et al.
# Submitted via: Feurio! 1.65 - http://www.feurio.com
#
DISCID=a511560e
DTITLE=Seal - Seal IV
DYEAR=2003
DGENRE=Pop
TTITLE0=Get It Together
TTITLE1=Love's Divine
TTITLE2=Waiting For You
TTITLE3=My Vision
TTITLE4=Don't Make Me Wait
TTITLE5=Let Me Roll
TTITLE6=Touch
TTITLE7=Where There's Gold
TTITLE8=Loneliest Star
TTITLE9=Heavenly... (Good Feeling)
TTITLE10=Tinsel Town
TTITLE11=Get It Together (Reprise)
TTITLE12=Bonus - Love's Divine (Deepsky club mix)
TTITLE13=Data track
EXTD=
EXTT0=
EXTT1=
EXTT2=
EXTT3=
EXTT4=
EXTT5=
EXTT6=
EXTT7=
EXTT8=
EXTT9=
EXTT10=
EXTT11=
EXTT12=
EXTT13=
PLAYORDER=
